M48
INCH
T01C0.0200
T02C0.0400
T03C0.0300
T04C0.0500
T05C0.0600
T06C0.0320
%
T01
X-005200Y+014803
X-005200Y+018070
X-010866Y+000118
X-010866Y+001811
X-056050Y+004250
X-056050Y+001920
X-029120Y+012060
X-031130Y+012060
X-041600Y+027599
X-039414Y+027599
T02
X-026692Y+027618
X-026692Y+026618
X-026692Y+025618
X-026692Y+024618
X-026692Y+023618
X-026692Y+022618
X-026692Y+021618
X-026692Y+020618
X-026692Y+019618
X-026692Y+018618
X-025692Y+018618
X-025692Y+019618
X-025692Y+020618
X-025692Y+021618
X-025692Y+022618
X-025692Y+023618
X-025692Y+024618
X-025692Y+025618
X-025692Y+026618
X-025692Y+027618
X-043724Y+027599
X-043724Y+026599
X-043724Y+025599
X-043724Y+024599
X-043724Y+023599
X-043724Y+022599
X-043724Y+021599
X-043724Y+020599
X-043724Y+019599
X-043724Y+018599
X-042724Y+018599
X-042724Y+019599
X-042724Y+020599
X-042724Y+021599
X-042724Y+022599
X-042724Y+023599
X-042724Y+024599
X-042724Y+025599
X-042724Y+026599
X-042724Y+027599
X-027262Y+011232
X-027262Y+010232
X-027262Y+009232
X-021081Y+011272
X-021081Y+010272
X-021081Y+009272
X-011227Y+011264
X-011227Y+007264
X-016440Y+005984
X-012440Y+005984
X-011283Y+005984
X-007283Y+005984
X-047933Y+023600
X-047933Y+024600
X-047933Y+025600
X-047933Y+026600
X-047933Y+027600
X-027498Y+005705
X-027498Y+004705
X-027498Y+003705
X-027498Y+002705
X-021238Y+005713
X-021238Y+004713
X-021238Y+003713
X-021238Y+002713
X-054763Y+012913
X-054763Y+008913
X-041338Y+007637
X-037338Y+007637
X-041299Y+005787
X-037299Y+005787
X-035629Y+002480
X-031629Y+002480
X-056626Y+029631
X-056626Y+030631
X-056626Y+031631
X-065406Y+019887
X-061406Y+019887
T03
X-016462Y+004314
X-016462Y+003314
X-009393Y+008661
X-008393Y+008661
X-007307Y+004193
X-007307Y+003193
X-005172Y+005857
X-054725Y+024093
X-054725Y+025093
X-052126Y+025093
X-052126Y+024093
X-053425Y+010905
X-049425Y+010905
X-051433Y+007913
X-049433Y+007913
X-050433Y+007913
X-045944Y+008661
X-045944Y+007661
X-045944Y+006661
X-045944Y+005661
X-042944Y+007661
X-042944Y+008661
X-051393Y+004763
X-049393Y+004763
X-050393Y+004763
X-035629Y+008307
X-035629Y+007307
X-035629Y+006307
X-035629Y+005307
X-032629Y+006307
X-032629Y+007307
X-032629Y+008307
X-035984Y+010590
X-031984Y+010590
X-005200Y+012182
X-058902Y+019864
X-057902Y+019864
T04
X-002848Y+027565
X-000053Y+027683
X+001954Y+025833
X-001234Y+023707
X-001037Y+024770
X-002848Y+020715
X+001954Y+018982
X-001234Y+016856
X-001037Y+017919
X-000078Y+020787
T05
X-060674Y+005221
X-060674Y+007221
X-060631Y+014872
X-060631Y+012872
X-060631Y+010872
X-065920Y+032620
X+001590Y+032620
X-065980Y-000770
X+001630Y-000750
T06
X-005172Y+004857
X-005172Y+003857
X-005172Y+002857
X-002172Y+002857
X-002172Y+003857
X-002172Y+004857
X-002172Y+005857
X-042944Y+005661
X-042944Y+006661
X-032629Y+005307
X-005200Y+011182
X-005200Y+010182
X-005200Y+009182
X-002200Y+009182
X-002200Y+010182
X-002200Y+011182
X-002200Y+012182
M30
